<svg xmlns="http://www.w3.org/2000/svg" viewBox="0 0 96 120" x="0px" y="0px"><g data-name="1"><path d="M88.21,47.33,86.43,45a3.81,3.81,0,0,1-.53-3.71l1-2.71A9.8,9.8,0,0,0,81.1,25.8l-2.73-1A3.82,3.82,0,0,1,75.91,22l-.57-2.84a9.82,9.82,0,0,0-11.85-7.62l-2.83.67a3.85,3.85,0,0,1-3.6-1.06L55,9.05a9.72,9.72,0,0,0-7-3h0a9.72,9.72,0,0,0-7,3l-2,2.09a3.85,3.85,0,0,1-3.6,1.06l-2.83-.67a9.82,9.82,0,0,0-11.85,7.62L20.09,22a3.82,3.82,0,0,1-2.46,2.84l-2.73,1A9.8,9.8,0,0,0,9.05,38.61l1,2.71A3.81,3.81,0,0,1,9.57,45l-1.78,2.3a9.82,9.82,0,0,0,2,13.94L12.15,63a3.84,3.84,0,0,1,1.56,3.42l-.25,2.89a9.79,9.79,0,0,0,9.22,10.64l2.9.16a3.83,3.83,0,0,1,3.15,2l1.35,2.57a9.83,9.83,0,0,0,13.52,4l2.52-1.43a3.82,3.82,0,0,1,3.76,0l2.52,1.43a9.68,9.68,0,0,0,7.6.87,9.67,9.67,0,0,0,5.91-4.84l1.36-2.57a3.83,3.83,0,0,1,3.15-2l2.9-.16a9.81,9.81,0,0,0,9.22-10.64l-.25-2.89A3.84,3.84,0,0,1,83.85,63l2.35-1.7a9.82,9.82,0,0,0,2-13.94ZM31,31a8.48,8.48,0,1,1,0,12A8.49,8.49,0,0,1,31,31ZM36.29,64A3,3,0,0,1,32,59.71L59.71,32A3,3,0,1,1,64,36.28ZM65,65a8.49,8.49,0,1,1,0-12A8.47,8.47,0,0,1,65,65ZM60.72,57.2A2.49,2.49,0,1,1,59,56.47,2.5,2.5,0,0,1,60.72,57.2ZM35.28,38.79a2.48,2.48,0,0,1,0-3.51,2.49,2.49,0,0,1,3.52,0h0a2.5,2.5,0,0,1,0,3.51A2.55,2.55,0,0,1,35.28,38.79Z"/></g><text x="0" y="111" fill="#000000" font-size="5px" font-weight="bold" font-family="'Helvetica Neue', Helvetica, Arial-Unicode, Arial, Sans-serif">Created by Angel Yuta</text><text x="0" y="116" fill="#000000" font-size="5px" font-weight="bold" font-family="'Helvetica Neue', Helvetica, Arial-Unicode, Arial, Sans-serif">from the Noun Project</text></svg>